<?xml version="1.0" encoding="UTF-8"?>
<svg width="1144px" height="244px" viewBox="0 0 1144 244" version="1.1" xmlns="http://www.w3.org/2000/svg" xmlns:xlink="http://www.w3.org/1999/xlink">
    <title>TheBritishMuseumAudioGuide</title>
    <g id="present" stroke="none" stroke-width="1" fill="none" fill-rule="evenodd">
        <g transform="translate(-213.000000, -282.000000)" fill="#1A1A1A" fill-rule="nonzero" id="TheBritishMuseumAudioGuide">
            <path d="M270.8,381.52 C272.013333,381.52 272.836667,381.39 273.27,381.13 C273.703333,380.87 273.92,380.263333 273.92,379.31 C273.92,377.923333 272.706667,377.143333 270.28,376.97 C269.326667,376.883333 268.156667,376.558333 266.77,375.995 C265.383333,375.431667 264.105,374.586667 262.935,373.46 C261.765,372.333333 261.18,369.906667 261.18,366.18 L261.18,366.18 L261.31,357.73 L261.7,310.15 L261.70085,303.382039 C261.71672,299.718956 261.95477,297.489943 262.415,296.695 C262.891667,295.871667 264.17,295.46 266.25,295.46 L266.25,295.46 L283.15,295.46 C289.39,295.46 293.16,296.586667 294.46,298.84 C294.98,299.793333 295.478333,301.158333 295.955,302.935 C296.431667,304.711667 297.016667,305.6 297.71,305.6 C298.576667,305.6 299.14,305.318333 299.4,304.755 C299.66,304.191667 299.79,302.826667 299.79,300.66 L299.79,300.66 L299.01,290.13 C299.01,289.696667 298.836667,289.22 298.49,288.7 C298.143333,288.18 297.493333,287.92 296.54,287.92 C292.994545,288.426494 282.912365,288.686318 266.293458,288.699474 L263.382181,288.699522 C246.827495,288.689336 235.671768,288.516162 229.915,288.18 C223.978333,287.833333 220.446667,287.66 219.32,287.66 C218.193333,287.66 217.37,287.746667 216.85,287.92 C216.59,288.006667 216.373333,288.093333 216.2,288.18 C216.026667,288.266667 215.875,288.418333 215.745,288.635 C215.615,288.851667 215.506667,289.025 215.42,289.155 C215.333333,289.285 215.268333,289.501667 215.225,289.805 C215.181667,290.108333 215.138333,290.325 215.095,290.455 C215.051667,290.585 215.008333,290.866667 214.965,291.3 C214.921667,291.733333 214.683333,293.358333 214.25,296.175 C213.816667,298.991667 213.6,302.133333 213.6,305.6 C213.6,307.073333 214.076667,307.81 215.03,307.81 C216.416667,307.81 217.24,306.813333 217.5,304.82 C217.673333,304.04 217.998333,303.021667 218.475,301.765 C218.951667,300.508333 219.558333,299.403333 220.295,298.45 C221.031667,297.496667 221.66,296.868333 222.18,296.565 C222.7,296.261667 224.498333,295.936667 227.575,295.59 C230.651667,295.243333 234.876667,295.07 240.25,295.07 C245.623333,295.07 248.786667,295.265 249.74,295.655 C250.693333,296.045 251.17,297.063333 251.17,298.71 L251.17,298.71 L251.3,321.98 C251.3,347.113333 250.866667,363.493333 250,371.12 C249.653333,373.893333 248.006667,375.626667 245.06,376.32 C244.626667,376.406667 243.651667,376.558333 242.135,376.775 C240.618333,376.991667 239.6,377.251667 239.08,377.555 C238.56,377.858333 238.3,378.443333 238.3,379.31 C238.3,380.696667 239.903333,381.39 243.11,381.39 L243.11,381.39 L256.37,380.48 L270.8,381.52 Z M372.07,381.39 C374.756667,381.39 376.1,380.696667 376.1,379.31 C376.1,377.923333 373.76,377.013333 369.08,376.58 C367.953333,376.493333 366.956667,375.8 366.09,374.5 C365.223333,373.2 364.79,371.38 364.79,369.04 L364.79,369.04 L364.79,350.19 C364.79,341.436667 362.84,334.98 358.94,330.82 C355.04,326.66 349.58,324.58 342.56,324.58 C339.353333,324.58 336.341667,325.381667 333.525,326.985 C330.708333,328.588333 328.498333,330.191667 326.895,331.795 C326.093333,332.596667 325.470417,333.197917 325.02625,333.59875 L324.819062,333.782465 C324.498576,334.060822 324.302222,334.2 324.23,334.2 C323.536667,334.2 323.19,333.463333 323.19,331.99 C323.19,330.516667 323.276667,327.96 323.45,324.32 C323.536667,322.413333 323.645,318.751667 323.775,313.335 C323.905,307.918333 323.991667,302.848333 324.035,298.125 C324.078333,293.401667 324.251667,290.216667 324.555,288.57 C324.858333,286.923333 325.01,285.883333 325.01,285.45 C325.01,283.456667 324.446667,282.46 323.32,282.46 C322.54,282.46 320.59,283.153333 317.47,284.54 C314.35,285.926667 311.945,286.836667 310.255,287.27 C308.565,287.703333 307.265,288.158333 306.355,288.635 C305.445,289.111667 304.99,289.74 304.99,290.52 C304.99,291.3 305.726667,291.69 307.2,291.69 L307.2,291.69 L307.72,291.82 L309.41,291.82 C312.01,291.82 313.57,293.12 314.09,295.72 C314.61,298.32 314.87,305.513333 314.87,317.3 L314.87,317.3 L314.87,323.67 L314.35,368 C314.35,370.946667 313.981667,373.178333 313.245,374.695 C312.508333,376.211667 310.883333,377.316667 308.37,378.01 C307.33,378.27 306.81,378.833333 306.81,379.7 C306.81,380.046667 306.853333,380.35 306.94,380.61 C307.026667,380.87 308.153333,381 310.32,381 L310.32,381 L319.55,380.35 C319.723333,380.35 320.958333,380.415 323.255,380.545 C325.551667,380.675 327.826667,380.783333 330.08,380.87 L330.08,380.87 L333.46,381 C334.413333,381 334.89,380.48 334.89,379.44 C334.89,378.746667 334.565,378.291667 333.915,378.075 C333.265,377.858333 332.333333,377.706667 331.12,377.62 C327.306667,377.36 324.923333,375.54 323.97,372.16 C323.363333,369.733333 323.06,366.57 323.06,362.67 L323.06,362.67 L323.060271,359.111081 C323.068934,350.074646 323.28551,344.219286 323.71,341.545 C324.143333,338.815 325.14,336.843333 326.7,335.63 C331.033333,332.25 335.301667,330.56 339.505,330.56 C343.708333,330.56 347.413333,332.488333 350.62,336.345 C353.826667,340.201667 355.43,344.773333 355.43,350.06 L355.43,350.06 L355.3,368.26 L355.17,371.64 C355.17,373.633333 354.801667,375.106667 354.065,376.06 C353.328333,377.013333 352.526667,377.49 351.66,377.49 C349.32,377.49 348.15,378.27 348.15,379.83 C348.15,380.696667 349.146667,381.13 351.14,381.13 L351.14,381.13 L361.15,380.74 L372.07,381.39 Z M411.2,383.47 C416.833333,383.47 421.73,382.126667 425.89,379.44 C427.623333,378.313333 429.443333,376.861667 431.35,375.085 C433.256667,373.308333 434.21,371.9 434.21,370.86 C434.21,370.08 433.776667,369.69 432.91,369.69 C432.736667,369.69 430.765,370.665 426.995,372.615 C423.225,374.565 419.52,375.54 415.88,375.54 C409.986667,375.54 404.851667,373.2 400.475,368.52 C396.098333,363.84 393.91,357.426667 393.91,349.28 C393.91,348.586667 393.975,348.175 394.105,348.045 C394.235,347.915 394.646667,347.85 395.34,347.85 L395.34,347.85 L428.75,347.85 C432.303333,347.85 434.08,347.07 434.08,345.51 C434.08,343.69 433.126667,341.003333 431.22,337.45 C430.093333,335.37 428.706667,333.398333 427.06,331.535 C425.413333,329.671667 423.095,328.09 420.105,326.79 C417.115,325.49 413.8,324.84 410.16,324.84 C402.36,324.84 396.011667,327.83 391.115,333.81 C386.218333,339.79 383.77,347.221667 383.77,356.105 C383.77,364.988333 386.435,371.77 391.765,376.45 C397.095,381.13 403.573333,383.47 411.2,383.47 Z M396.38,344.73 C395.253333,344.73 394.69,344.123333 394.69,342.91 C394.69,339.876667 395.86,336.648333 398.2,333.225 C400.54,329.801667 403.876667,328.09 408.21,328.09 C412.543333,328.09 415.923333,329.823333 418.35,333.29 C420.776667,336.756667 421.99,339.79 421.99,342.39 C421.99,342.996667 421.838333,343.408333 421.535,343.625 C421.231667,343.841667 420.473333,343.95 419.26,343.95 L419.26,343.95 L396.38,344.73 Z M512.47,382.04 C516.543333,382.04 520.226667,381.585 523.52,380.675 C526.813333,379.765 530.15,378.14 533.53,375.8 C536.91,373.46 539.683333,370.166667 541.85,365.92 C544.016667,361.673333 545.1,357.578333 545.1,353.635 C545.1,349.691667 544.363333,346.181667 542.89,343.105 C541.416667,340.028333 539.661667,337.71 537.625,336.15 C535.588333,334.59 533.53,333.355 531.45,332.445 C529.37,331.535 527.593333,330.885 526.12,330.495 C524.646667,330.105 523.91,329.78 523.91,329.52 C523.91,329.433333 524.343333,329.086667 525.21,328.48 C533.01,323.713333 536.91,317.603333 536.91,310.15 C536.91,303.216667 534.266667,297.865 528.98,294.095 C523.693333,290.325 517.106667,288.44 509.22,288.44 L509.22,288.44 L494.92,288.83 L475.94,288.96 L470.74,288.83 C469.96,288.83 469.57,289.48 469.57,290.78 C469.57,291.82 470.306667,292.34 471.78,292.34 C476.806667,292.34 480.186667,294.16 481.92,297.8 C482.786667,299.533333 483.22,301.093333 483.22,302.48 L483.22,302.48 L483.22,324.58 C483.22,324.817852 483.219989,325.05465 483.219968,325.290394 L483.219198,328.068735 C483.210103,347.390319 483.123704,359.097407 482.96,363.19 C482.786667,367.523333 482.31,370.686667 481.53,372.68 C480.316667,375.713333 478.8,377.23 476.98,377.23 L476.98,377.23 L473.99,377.36 C473.036667,377.36 472.56,377.988333 472.56,379.245 C472.56,380.501667 473.47,381.13 475.29,381.13 L475.29,381.13 L477.11,381.13 L488.29,380.61 C488.896667,380.61 492.06,380.848333 497.78,381.325 C503.5,381.801667 508.396667,382.04 512.47,382.04 Z M510.52,329.26 L501.811486,329.259257 C497.467257,329.242419 495.126762,328.939333 494.79,328.35 C494.183333,327.136667 493.88,321.07 493.88,310.15 L493.88,306.38 C493.88,300.66 494.335,296.998333 495.245,295.395 C496.155,293.791667 497.953333,292.99 500.64,292.99 C509.046667,292.99 515.525,295.265 520.075,299.815 C524.625,304.365 526.9,308.98 526.9,313.66 C526.9,318.34 525.535,322.11 522.805,324.97 C520.075,327.83 515.98,329.26 510.52,329.26 L510.52,329.26 Z M508.83,376.84 L505.84,376.84 C497.346667,376.84 493.1,374.24 493.1,369.04 L493.1,369.04 L493.23,363.32 L493.230663,353.39125 C493.242602,343.73875 493.415714,338.035 493.75,336.28 C494.096667,334.806667 494.443333,333.961667 494.79,333.745 C495.136667,333.528333 495.7,333.42 496.48,333.42 L496.48,333.42 L498.43,333.55 L508.57,333.68 C511.863333,333.68 515.416667,334.286667 519.23,335.5 C522.003333,336.366667 524.386667,337.58 526.38,339.14 C528.373333,340.7 530.15,343.018333 531.71,346.095 C533.27,349.171667 534.05,353.006667 534.05,357.6 C534.05,362.193333 532.728333,366.266667 530.085,369.82 C527.441667,373.373333 524.408333,375.431667 520.985,375.995 C517.561667,376.558333 513.51,376.84 508.83,376.84 L508.83,376.84 Z M583.32,381.39 C584.36,381.39 584.88,380.848333 584.88,379.765 C584.88,378.681667 584.403333,378.053333 583.45,377.88 C582.93,377.706667 582.453333,377.598333 582.02,377.555 C581.586667,377.511667 580.98,377.446667 580.2,377.36 C579.42,377.273333 578.488333,377.143333 577.405,376.97 C576.321667,376.796667 575.173333,376.06 573.96,374.76 C572.746667,373.46 572.14,371.9 572.14,370.08 L572.14,370.08 L572.01,367.74 L571.88,356.43 L571.88,342.91 C571.88,341.35 572.898333,339.616667 574.935,337.71 C576.971667,335.803333 579.16,334.85 581.5,334.85 C583.84,334.85 585.898333,335.37 587.675,336.41 C589.451667,337.45 590.686667,337.97 591.38,337.97 C592.42,337.97 593.546667,336.93 594.76,334.85 C595.453333,333.636667 595.8,332.315 595.8,330.885 C595.8,329.455 594.716667,328.025 592.55,326.595 C590.383333,325.165 588.281667,324.45 586.245,324.45 C584.208333,324.45 582.15,325.338333 580.07,327.115 C577.99,328.891667 576.386667,330.646667 575.26,332.38 C574.133333,334.113333 573.461667,334.98 573.245,334.98 C573.028333,334.98 572.811667,334.828333 572.595,334.525 C572.378333,334.221667 572.27,332.51 572.27,329.39 L572.27,329.39 L572.4,325.88 C572.4,324.146667 571.836667,323.28 570.71,323.28 C570.363333,323.28 569.28,323.691667 567.46,324.515 C565.64,325.338333 563.148333,326.248333 559.985,327.245 C556.821667,328.241667 554.655,328.978333 553.485,329.455 C552.315,329.931667 551.73,330.646667 551.73,331.6 C551.73,332.986667 552.553333,333.68 554.2,333.68 L554.2,333.68 L555.63,333.81 C559.01,333.81 561.046667,334.633333 561.74,336.28 C562,336.886667 562.13,337.666667 562.13,338.62 L562.13,338.62 L562.26,342.52 L562.39,363.45 C562.39,368.996667 562.151667,372.615 561.675,374.305 C561.198333,375.995 559.833333,377.1 557.58,377.62 C556.453333,377.966667 555.89,378.703333 555.89,379.83 C555.89,380.176667 555.976667,380.523333 556.15,380.87 C556.323333,381.216667 557.19,381.39 558.75,381.39 L558.75,381.39 L572.27,380.74 L583.32,381.39 Z M616.08,311.71 C616.86,311.71 618.073333,310.865 619.72,309.175 C621.366667,307.485 622.19,305.946667 622.19,304.56 C622.19,303.173333 621.54,301.591667 620.24,299.815 C618.94,298.038333 617.618333,297.15 616.275,297.15 C614.931667,297.15 613.501667,298.081667 611.985,299.945 C610.468333,301.808333 609.71,303.325 609.71,304.495 C609.71,305.665 610.338333,307.16 611.595,308.98 C612.851667,310.8 614.346667,311.71 616.08,311.71 Z M629.47,381.91 C630.943333,381.91 631.68,381.173333 631.68,379.7 C631.68,378.66 631.073333,378.053333 629.86,377.88 C629.513333,377.88 628.733333,377.836667 627.52,377.75 C626.306667,377.663333 625.245,377.446667 624.335,377.1 C623.425,376.753333 622.558333,375.843333 621.735,374.37 C620.911667,372.896667 620.5,370.86 620.5,368.26 L620.5,368.26 L620.5,332.64 L621.28,326.4 C621.28,324.753333 620.63,323.93 619.33,323.93 C618.463333,323.93 617.726667,324.06 617.12,324.32 C616.86,324.493333 616.318333,324.753333 615.495,325.1 C614.671667,325.446667 613.48,325.966667 611.92,326.66 C610.36,327.353333 608.366667,328.046667 605.94,328.74 C605.246667,329 604.575,329.281667 603.925,329.585 C603.275,329.888333 602.841667,330.17 602.625,330.43 C602.408333,330.69 602.3,331.058333 602.3,331.535 C602.3,332.011667 602.581667,332.358333 603.145,332.575 C603.708333,332.791667 604.618333,333.008333 605.875,333.225 C607.131667,333.441667 608.02,333.723333 608.54,334.07 C609.06,334.416667 609.623333,335.326667 610.23,336.8 C610.836667,338.273333 611.14,340.266667 611.14,342.78 L611.14,342.78 L611.14,354.22 C611.14,366.266667 610.836667,372.983333 610.23,374.37 C609.623333,375.756667 608.323333,376.796667 606.33,377.49 C606.07,377.576667 605.896667,377.62 605.81,377.62 C604.51,378.053333 603.86,378.855 603.86,380.025 C603.86,381.195 605.593333,381.78 609.06,381.78 L609.06,381.78 L618.29,381.52 L627.52,381.78 L629.47,381.91 Z M662.49,382.3 C665.956667,382.3 669.185,381.368333 672.175,379.505 C675.165,377.641667 676.66,376.146667 676.66,375.02 C676.66,373.893333 676.226667,373.33 675.36,373.33 C675.186667,373.33 673.995,373.741667 671.785,374.565 C669.575,375.388333 667.56,375.8 665.74,375.8 C661.146667,375.8 658.135,374.695 656.705,372.485 C655.275,370.275 654.56,366.353333 654.56,360.72 L654.56,360.72 L655.08,336.54 C655.08,334.72 655.318333,333.55 655.795,333.03 C656.271667,332.51 657.333333,332.25 658.98,332.25 L658.98,332.25 L659.24,332.38 C659.413333,332.38 659.695,332.401667 660.085,332.445 C660.475,332.488333 660.93,332.531667 661.45,332.575 C661.97,332.618333 663.01,332.726667 664.57,332.9 C666.13,333.073333 668.86,333.16 672.76,333.16 C673.28,333.16 674.103333,332.141667 675.23,330.105 C676.356667,328.068333 676.92,326.703333 676.92,326.01 C676.92,325.056667 676.486667,324.58 675.62,324.58 C675.273333,324.58 674.32,324.97 672.76,325.75 C671.893333,326.183333 669.51,326.4 665.61,326.4 L660.74053,326.399323 C658.333649,326.388941 656.901806,326.259167 656.445,326.01 C655.968333,325.75 655.73,325.013333 655.73,323.8 C656.076667,318.86 656.25,316.39 656.25,316.39 C656.25,314.396667 655.816667,313.4 654.95,313.4 C654.083333,313.4 653.238333,313.855 652.415,314.765 C651.591667,315.675 650.486667,317.126667 649.1,319.12 C645.806667,323.453333 642.513333,326.703333 639.22,328.87 C638.44,329.476667 638.05,330.213333 638.05,331.08 C638.05,332.293333 638.786667,332.9 640.26,332.9 L640.26,332.9 L642.73,332.77 C643.856667,332.77 644.593333,332.9 644.94,333.16 C645.286667,333.42 645.46,333.983333 645.46,334.85 L645.46,334.85 L644.94,365.14 L644.94,367.09 C644.94,377.23 650.79,382.3 662.49,382.3 Z M697.46,311.71 C698.24,311.71 699.453333,310.865 701.1,309.175 C702.746667,307.485 703.57,305.946667 703.57,304.56 C703.57,303.173333 702.92,301.591667 701.62,299.815 C700.32,298.038333 698.998333,297.15 697.655,297.15 C696.311667,297.15 694.881667,298.081667 693.365,299.945 C691.848333,301.808333 691.09,303.325 691.09,304.495 C691.09,305.665 691.718333,307.16 692.975,308.98 C694.231667,310.8 695.726667,311.71 697.46,311.71 Z M710.85,381.91 C712.323333,381.91 713.06,381.173333 713.06,379.7 C713.06,378.66 712.453333,378.053333 711.24,377.88 C710.893333,377.88 710.113333,377.836667 708.9,377.75 C707.686667,377.663333 706.625,377.446667 705.715,377.1 C704.805,376.753333 703.938333,375.843333 703.115,374.37 C702.291667,372.896667 701.88,370.86 701.88,368.26 L701.88,368.26 L701.88,332.64 L702.66,326.4 C702.66,324.753333 702.01,323.93 700.71,323.93 C699.843333,323.93 699.106667,324.06 698.5,324.32 C698.24,324.493333 697.698333,324.753333 696.875,325.1 C696.051667,325.446667 694.86,325.966667 693.3,326.66 C691.74,327.353333 689.746667,328.046667 687.32,328.74 C686.626667,329 685.955,329.281667 685.305,329.585 C684.655,329.888333 684.221667,330.17 684.005,330.43 C683.788333,330.69 683.68,331.058333 683.68,331.535 C683.68,332.011667 683.961667,332.358333 684.525,332.575 C685.088333,332.791667 685.998333,333.008333 687.255,333.225 C688.511667,333.441667 689.4,333.723333 689.92,334.07 C690.44,334.416667 691.003333,335.326667 691.61,336.8 C692.216667,338.273333 692.52,340.266667 692.52,342.78 L692.52,342.78 L692.52,354.22 C692.52,366.266667 692.216667,372.983333 691.61,374.37 C691.003333,375.756667 689.703333,376.796667 687.71,377.49 C687.45,377.576667 687.276667,377.62 687.19,377.62 C685.89,378.053333 685.24,378.855 685.24,380.025 C685.24,381.195 686.973333,381.78 690.44,381.78 L690.44,381.78 L699.67,381.52 L708.9,381.78 L710.85,381.91 Z M742.31,383.08 C747.77,383.08 752.06,381.736667 755.18,379.05 C759.773333,374.89 762.07,370.34 762.07,365.4 C762.07,360.46 760.943333,356.668333 758.69,354.025 C756.436667,351.381667 751.366667,348.673333 743.48,345.9 C742.18,345.38 741.248333,345.011667 740.685,344.795 C740.121667,344.578333 739.276667,344.21 738.15,343.69 C737.023333,343.17 736.221667,342.671667 735.745,342.195 C735.268333,341.718333 734.705,341.133333 734.055,340.44 C733.405,339.746667 732.95,338.945 732.69,338.035 C732.43,337.125 732.3,335.933333 732.3,334.46 C732.3,332.986667 733.123333,331.621667 734.77,330.365 C736.416667,329.108333 738.54,328.48 741.14,328.48 C743.74,328.48 746.058333,329.108333 748.095,330.365 C750.131667,331.621667 751.605,332.986667 752.515,334.46 C753.425,335.933333 754.248333,337.298333 754.985,338.555 C755.721667,339.811667 756.415,340.44 757.065,340.44 C757.715,340.44 758.213333,340.18 758.56,339.66 C758.906667,339.14 759.08,338.143333 759.08,336.67 L759.08,336.67 L758.56,328.87 C758.56,328.35 758.321667,327.786667 757.845,327.18 C757.368333,326.573333 755.916667,325.901667 753.49,325.165 C751.063333,324.428333 747.51,324.06 742.83,324.06 C738.15,324.06 733.86,325.533333 729.96,328.48 C726.06,331.426667 724.11,335.326667 724.11,340.18 C724.11,343.646667 725.106667,346.528333 727.1,348.825 C729.093333,351.121667 731.52,352.855 734.38,354.025 C737.24,355.195 740.1,356.321667 742.96,357.405 C745.82,358.488333 748.246667,359.983333 750.24,361.89 C752.233333,363.796667 753.23,366.288333 753.23,369.365 C753.23,372.441667 752.016667,374.695 749.59,376.125 C747.163333,377.555 744.606667,378.27 741.92,378.27 C736.113333,378.27 731.606667,374.283333 728.4,366.31 C728.14,365.79 727.88,364.923333 727.62,363.71 C727.36,362.496667 727.078333,361.695 726.775,361.305 C726.471667,360.915 725.973333,360.72 725.28,360.72 C724.586667,360.72 724.045,361.045 723.655,361.695 C723.265,362.345 723.07,363.146667 723.07,364.1 L723.07,364.1 L723.07,375.41 C723.07,376.363333 723.2,377.056667 723.46,377.49 C723.633333,377.75 723.785,377.945 723.915,378.075 C724.045,378.205 724.283333,378.356667 724.63,378.53 C724.976667,378.703333 725.258333,378.811667 725.475,378.855 C725.691667,378.898333 726.038333,379.006667 726.515,379.18 C726.991667,379.353333 727.338333,379.461667 727.555,379.505 C727.771667,379.548333 728.53,379.83 729.83,380.35 C734.423333,382.17 738.583333,383.08 742.31,383.08 Z M836.69,381.39 C839.376667,381.39 840.72,380.696667 840.72,379.31 C840.72,377.923333 838.38,377.013333 833.7,376.58 C832.573333,376.493333 831.576667,375.8 830.71,374.5 C829.843333,373.2 829.41,371.38 829.41,369.04 L829.41,369.04 L829.41,350.19 C829.41,341.436667 827.46,334.98 823.56,330.82 C819.66,326.66 814.2,324.58 807.18,324.58 C803.973333,324.58 800.961667,325.381667 798.145,326.985 C795.328333,328.588333 793.118333,330.191667 791.515,331.795 C790.713333,332.596667 790.090417,333.197917 789.64625,333.59875 L789.439062,333.782465 C789.118576,334.060822 788.922222,334.2 788.85,334.2 C788.156667,334.2 787.81,333.463333 787.81,331.99 C787.81,330.516667 787.896667,327.96 788.07,324.32 C788.156667,322.413333 788.265,318.751667 788.395,313.335 C788.525,307.918333 788.611667,302.848333 788.655,298.125 C788.698333,293.401667 788.871667,290.216667 789.175,288.57 C789.478333,286.923333 789.63,285.883333 789.63,285.45 C789.63,283.456667 789.066667,282.46 787.94,282.46 C787.16,282.46 785.21,283.153333 782.09,284.54 C778.97,285.926667 776.565,286.836667 774.875,287.27 C773.185,287.703333 771.885,288.158333 770.975,288.635 C770.065,289.111667 769.61,289.74 769.61,290.52 C769.61,291.3 770.346667,291.69 771.82,291.69 L771.82,291.69 L772.34,291.82 L774.03,291.82 C776.63,291.82 778.19,293.12 778.71,295.72 C779.23,298.32 779.49,305.513333 779.49,317.3 L779.49,317.3 L779.49,323.67 L778.97,368 C778.97,370.946667 778.601667,373.178333 777.865,374.695 C777.128333,376.211667 775.503333,377.316667 772.99,378.01 C771.95,378.27 771.43,378.833333 771.43,379.7 C771.43,380.046667 771.473333,380.35 771.56,380.61 C771.646667,380.87 772.773333,381 774.94,381 L774.94,381 L784.17,380.35 C784.343333,380.35 785.578333,380.415 787.875,380.545 C790.171667,380.675 792.446667,380.783333 794.7,380.87 L794.7,380.87 L798.08,381 C799.033333,381 799.51,380.48 799.51,379.44 C799.51,378.746667 799.185,378.291667 798.535,378.075 C797.885,377.858333 796.953333,377.706667 795.74,377.62 C791.926667,377.36 789.543333,375.54 788.59,372.16 C787.983333,369.733333 787.68,366.57 787.68,362.67 L787.68,362.67 L787.680271,359.111081 C787.688934,350.074646 787.90551,344.219286 788.33,341.545 C788.763333,338.815 789.76,336.843333 791.32,335.63 C795.653333,332.25 799.921667,330.56 804.125,330.56 C808.328333,330.56 812.033333,332.488333 815.24,336.345 C818.446667,340.201667 820.05,344.773333 820.05,350.06 L820.05,350.06 L819.92,368.26 L819.79,371.64 C819.79,373.633333 819.421667,375.106667 818.685,376.06 C817.948333,377.013333 817.146667,377.49 816.28,377.49 C813.94,377.49 812.77,378.27 812.77,379.83 C812.77,380.696667 813.766667,381.13 815.76,381.13 L815.76,381.13 L825.77,380.74 L836.69,381.39 Z M958.24,381.52 C967.253333,381.086667 971.76,380.87 971.76,380.87 L971.76,380.87 L985.02,381.39 L986.45,381.39 C987.403333,381.39 987.88,380.696667 987.88,379.31 C987.88,378.963333 987.641667,378.573333 987.165,378.14 C986.688333,377.706667 986.146667,377.49 985.54,377.49 C981.12,377.49 978.216667,376.298333 976.83,373.915 C975.443333,371.531667 974.75,366.006667 974.75,357.34 C974.75,354.913333 974.49,348.955 973.97,339.465 C973.45,329.975 973.19,320.961667 973.19,312.425 C973.19,303.888333 973.623333,298.666667 974.49,296.76 C975.356667,294.853333 976.765,293.77 978.715,293.51 C980.665,293.25 981.921667,292.925 982.485,292.535 C983.048333,292.145 983.33,291.516667 983.33,290.65 C983.33,289.523333 982.593333,288.96 981.12,288.96 L981.12,288.96 L969.94,288.7 C968.12,288.7 966.863333,289.046667 966.17,289.74 C965.91,290 965.671667,290.433333 965.455,291.04 C965.238333,291.646667 965.086667,292.036667 965,292.21 C964.913333,292.383333 964.826667,292.578333 964.74,292.795 C964.653333,293.011667 964.545,293.315 964.415,293.705 C964.285,294.095 964.09,294.636667 963.83,295.33 L963.83,295.33 L960.84,301.83 C959.28,305.556667 956.203333,312.1 951.61,321.46 L951.61,321.46 L934.84,356.04 C934.666667,356.473333 934.385,357.101667 933.995,357.925 C933.605,358.748333 933.301667,359.42 933.085,359.94 C932.868333,360.46 932.608333,360.98 932.305,361.5 C932.001667,362.02 931.698333,362.431667 931.395,362.735 C931.091667,363.038333 930.81,363.19 930.55,363.19 C930.29,363.19 929.705,362.388333 928.795,360.785 C927.885,359.181667 926.585,356.69 924.895,353.31 C923.205,349.93 921.58,346.571667 920.02,343.235 C918.46,339.898333 916.423333,335.543333 913.91,330.17 C911.396667,324.796667 909.338333,320.376667 907.735,316.91 C906.131667,313.443333 903.986667,308.785 901.3,302.935 C898.613333,297.085 896.75,293.033333 895.71,290.78 C895.276667,289.566667 894.236667,288.96 892.59,288.96 L892.59,288.96 L882.84,289.22 L875.95,288.7 C874.39,288.7 873.61,289.35 873.61,290.65 C873.61,291.69 874.173333,292.34 875.3,292.6 C880.933333,293.9 884.595,296.196667 886.285,299.49 C887.975,302.783333 888.82,308.178333 888.82,315.675 C888.82,323.171667 888.516667,333.506667 887.91,346.68 C887.303333,359.853333 886.74,367.566667 886.22,369.82 C885.7,372.073333 884.833333,373.871667 883.62,375.215 C882.406667,376.558333 881.323333,377.273333 880.37,377.36 C877.77,377.446667 876.47,378.053333 876.47,379.18 C876.47,380.566667 877.38,381.26 879.2,381.26 L879.2,381.26 L889.86,380.87 L903.38,381.39 C904.16,381.39 904.68,381.238333 904.94,380.935 C905.2,380.631667 905.33,380.025 905.33,379.115 C905.33,378.205 904.246667,377.62 902.08,377.36 C900.693333,377.273333 899.263333,376.796667 897.79,375.93 C894.93,374.283333 893.5,369.906667 893.5,362.8 L893.5,362.8 L893.5,356.95 L894.67,322.63 C894.67,319.163333 895.016667,317.43 895.71,317.43 C895.97,317.43 896.273333,317.668333 896.62,318.145 C896.7136,318.2737 897.372661,319.560173 898.597183,322.00442 L899.178647,323.166985 C902.736149,330.290062 909.9866,344.9744 920.93,367.22 C921.71,368.866667 922.62,370.946667 923.66,373.46 C924.7,375.973333 925.48,377.598333 926,378.335 C926.52,379.071667 927.105,379.44 927.755,379.44 C928.405,379.44 928.903333,379.158333 929.25,378.595 C929.596667,378.031667 930.745,375.713333 932.695,371.64 C934.645,367.566667 936.66,363.406667 938.74,359.16 L938.74,359.16 L956.81,322.63 C956.983333,322.196667 957.243333,321.676667 957.59,321.07 L957.59,321.07 L958.24,319.64 C958.413333,319.293333 958.63,318.881667 958.89,318.405 C959.15,317.928333 959.366667,317.56 959.54,317.3 C959.713333,317.04 959.886667,316.715 960.06,316.325 C960.233333,315.935 960.406667,315.653333 960.58,315.48 C960.753333,315.306667 960.948333,315.09 961.165,314.83 C961.381667,314.57 961.62,314.44 961.88,314.44 C962.66,314.44 963.05,316.303333 963.05,320.03 L963.05,320.03 L963.31,323.15 C963.396667,325.23 963.526667,327.895 963.7,331.145 C963.873333,334.395 964.046667,337.861667 964.22,341.545 C964.393333,345.228333 964.545,349.02 964.675,352.92 C964.805,356.82 964.87,360.416667 964.87,363.71 C964.87,367.003333 964.675,369.581667 964.285,371.445 C963.895,373.308333 963.201667,374.738333 962.205,375.735 C961.208333,376.731667 960.276667,377.273333 959.41,377.36 C957.07,377.62 955.9,378.4 955.9,379.7 C955.9,380.913333 956.68,381.52 958.24,381.52 Z M1023.63,383.34 C1027.09667,383.34 1030.28167,382.646667 1033.185,381.26 C1036.08833,379.873333 1038.32,378.486667 1039.88,377.1 C1041.44,375.713333 1042.285,375.02 1042.415,375.02 C1042.545,375.02 1042.805,376.125 1043.195,378.335 C1043.585,380.545 1044.08333,381.65 1044.69,381.65 C1044.95,381.65 1046.835,381.411667 1050.345,380.935 C1053.855,380.458333 1056.47667,380.22 1058.21,380.22 C1059.94333,380.22 1061.11333,380.09 1061.72,379.83 C1062.32667,379.57 1062.63,378.92 1062.63,377.88 C1062.63,376.84 1061.59,376.32 1059.51,376.32 L1059.51,376.32 L1056.13,376.45 C1054.74333,376.45 1053.79,375.496667 1053.27,373.59 C1052.75,371.683333 1052.49,367.523333 1052.49,361.11 C1052.49,354.696667 1052.57667,348.89 1052.75,343.69 C1052.83667,341.09 1052.90167,338.75 1052.945,336.67 C1052.98833,334.59 1053.03167,332.921667 1053.075,331.665 C1053.11833,330.408333 1053.14,329.368333 1053.14,328.545 C1053.14,327.721667 1052.945,327.093333 1052.555,326.66 C1052.165,326.226667 1051.32,326.01 1050.02,326.01 L1050.02,326.01 L1045.34,326.66 C1037.71333,326.66 1033.9,327.656667 1033.9,329.65 C1033.9,330.603333 1035.02667,331.188333 1037.28,331.405 C1039.53333,331.621667 1041.00667,332.488333 1041.7,334.005 C1042.39333,335.521667 1042.74,338.446667 1042.74,342.78 L1042.74,342.78 L1043,360.72 C1043,366.613333 1041.74333,370.73 1039.23,373.07 C1036.71667,375.41 1032.68667,376.58 1027.14,376.58 C1023.41333,376.58 1020.07667,374.998333 1017.13,371.835 C1014.18333,368.671667 1012.71,363.276667 1012.71,355.65 C1012.71,350.536667 1012.81833,345.878333 1013.035,341.675 C1013.25167,337.471667 1013.36,334.156667 1013.36,331.73 C1013.36,329.303333 1013.23,327.786667 1012.97,327.18 C1012.71,326.573333 1011.84333,326.27 1010.37,326.27 L1010.37,326.27 L1002.96,326.92 C1000.53333,326.92 998.475,327.093333 996.785,327.44 C995.095,327.786667 994.25,328.566667 994.25,329.78 C994.25,330.993333 995.03,331.6 996.59,331.6 L996.59,331.6 L998.93,331.6 C999.71,331.6 1000.555,332.12 1001.465,333.16 C1002.375,334.2 1002.83,335.586667 1002.83,337.32 L1002.83,337.32 L1002.7,360.72 C1002.7,375.8 1009.67667,383.34 1023.63,383.34 Z M1091.75,383.08 C1097.21,383.08 1101.5,381.736667 1104.62,379.05 C1109.21333,374.89 1111.51,370.34 1111.51,365.4 C1111.51,360.46 1110.38333,356.668333 1108.13,354.025 C1105.87667,351.381667 1100.80667,348.673333 1092.92,345.9 C1091.62,345.38 1090.68833,345.011667 1090.125,344.795 C1089.56167,344.578333 1088.71667,344.21 1087.59,343.69 C1086.46333,343.17 1085.66167,342.671667 1085.185,342.195 C1084.70833,341.718333 1084.145,341.133333 1083.495,340.44 C1082.845,339.746667 1082.39,338.945 1082.13,338.035 C1081.87,337.125 1081.74,335.933333 1081.74,334.46 C1081.74,332.986667 1082.56333,331.621667 1084.21,330.365 C1085.85667,329.108333 1087.98,328.48 1090.58,328.48 C1093.18,328.48 1095.49833,329.108333 1097.535,330.365 C1099.57167,331.621667 1101.045,332.986667 1101.955,334.46 C1102.865,335.933333 1103.68833,337.298333 1104.425,338.555 C1105.16167,339.811667 1105.855,340.44 1106.505,340.44 C1107.155,340.44 1107.65333,340.18 1108,339.66 C1108.34667,339.14 1108.52,338.143333 1108.52,336.67 L1108.52,336.67 L1108,328.87 C1108,328.35 1107.76167,327.786667 1107.285,327.18 C1106.80833,326.573333 1105.35667,325.901667 1102.93,325.165 C1100.50333,324.428333 1096.95,324.06 1092.27,324.06 C1087.59,324.06 1083.3,325.533333 1079.4,328.48 C1075.5,331.426667 1073.55,335.326667 1073.55,340.18 C1073.55,343.646667 1074.54667,346.528333 1076.54,348.825 C1078.53333,351.121667 1080.96,352.855 1083.82,354.025 C1086.68,355.195 1089.54,356.321667 1092.4,357.405 C1095.26,358.488333 1097.68667,359.983333 1099.68,361.89 C1101.67333,363.796667 1102.67,366.288333 1102.67,369.365 C1102.67,372.441667 1101.45667,374.695 1099.03,376.125 C1096.60333,377.555 1094.04667,378.27 1091.36,378.27 C1085.55333,378.27 1081.04667,374.283333 1077.84,366.31 C1077.58,365.79 1077.32,364.923333 1077.06,363.71 C1076.8,362.496667 1076.51833,361.695 1076.215,361.305 C1075.91167,360.915 1075.41333,360.72 1074.72,360.72 C1074.02667,360.72 1073.485,361.045 1073.095,361.695 C1072.705,362.345 1072.51,363.146667 1072.51,364.1 L1072.51,364.1 L1072.51,375.41 C1072.51,376.363333 1072.64,377.056667 1072.9,377.49 C1073.07333,377.75 1073.225,377.945 1073.355,378.075 C1073.485,378.205 1073.72333,378.356667 1074.07,378.53 C1074.41667,378.703333 1074.69833,378.811667 1074.915,378.855 C1075.13167,378.898333 1075.47833,379.006667 1075.955,379.18 C1076.43167,379.353333 1076.77833,379.461667 1076.995,379.505 C1077.21167,379.548333 1077.97,379.83 1079.27,380.35 C1083.86333,382.17 1088.02333,383.08 1091.75,383.08 Z M1148.95,383.47 C1154.58333,383.47 1159.48,382.126667 1163.64,379.44 C1165.37333,378.313333 1167.19333,376.861667 1169.1,375.085 C1171.00667,373.308333 1171.96,371.9 1171.96,370.86 C1171.96,370.08 1171.52667,369.69 1170.66,369.69 C1170.48667,369.69 1168.515,370.665 1164.745,372.615 C1160.975,374.565 1157.27,375.54 1153.63,375.54 C1147.73667,375.54 1142.60167,373.2 1138.225,368.52 C1133.84833,363.84 1131.66,357.426667 1131.66,349.28 C1131.66,348.586667 1131.725,348.175 1131.855,348.045 C1131.985,347.915 1132.39667,347.85 1133.09,347.85 L1133.09,347.85 L1166.5,347.85 C1170.05333,347.85 1171.83,347.07 1171.83,345.51 C1171.83,343.69 1170.87667,341.003333 1168.97,337.45 C1167.84333,335.37 1166.45667,333.398333 1164.81,331.535 C1163.16333,329.671667 1160.845,328.09 1157.855,326.79 C1154.865,325.49 1151.55,324.84 1147.91,324.84 C1140.11,324.84 1133.76167,327.83 1128.865,333.81 C1123.96833,339.79 1121.52,347.221667 1121.52,356.105 C1121.52,364.988333 1124.185,371.77 1129.515,376.45 C1134.845,381.13 1141.32333,383.47 1148.95,383.47 Z M1134.13,344.73 C1133.00333,344.73 1132.44,344.123333 1132.44,342.91 C1132.44,339.876667 1133.61,336.648333 1135.95,333.225 C1138.29,329.801667 1141.62667,328.09 1145.96,328.09 C1150.29333,328.09 1153.67333,329.823333 1156.1,333.29 C1158.52667,336.756667 1159.74,339.79 1159.74,342.39 C1159.74,342.996667 1159.58833,343.408333 1159.285,343.625 C1158.98167,343.841667 1158.22333,343.95 1157.01,343.95 L1157.01,343.95 L1134.13,344.73 Z M1210.18,383.34 C1213.64667,383.34 1216.83167,382.646667 1219.735,381.26 C1222.63833,379.873333 1224.87,378.486667 1226.43,377.1 C1227.99,375.713333 1228.835,375.02 1228.965,375.02 C1229.095,375.02 1229.355,376.125 1229.745,378.335 C1230.135,380.545 1230.63333,381.65 1231.24,381.65 C1231.5,381.65 1233.385,381.411667 1236.895,380.935 C1240.405,380.458333 1243.02667,380.22 1244.76,380.22 C1246.49333,380.22 1247.66333,380.09 1248.27,379.83 C1248.87667,379.57 1249.18,378.92 1249.18,377.88 C1249.18,376.84 1248.14,376.32 1246.06,376.32 L1246.06,376.32 L1242.68,376.45 C1241.29333,376.45 1240.34,375.496667 1239.82,373.59 C1239.3,371.683333 1239.04,367.523333 1239.04,361.11 C1239.04,354.696667 1239.12667,348.89 1239.3,343.69 C1239.38667,341.09 1239.45167,338.75 1239.495,336.67 C1239.53833,334.59 1239.58167,332.921667 1239.625,331.665 C1239.66833,330.408333 1239.69,329.368333 1239.69,328.545 C1239.69,327.721667 1239.495,327.093333 1239.105,326.66 C1238.715,326.226667 1237.87,326.01 1236.57,326.01 L1236.57,326.01 L1231.89,326.66 C1224.26333,326.66 1220.45,327.656667 1220.45,329.65 C1220.45,330.603333 1221.57667,331.188333 1223.83,331.405 C1226.08333,331.621667 1227.55667,332.488333 1228.25,334.005 C1228.94333,335.521667 1229.29,338.446667 1229.29,342.78 L1229.29,342.78 L1229.55,360.72 C1229.55,366.613333 1228.29333,370.73 1225.78,373.07 C1223.26667,375.41 1219.23667,376.58 1213.69,376.58 C1209.96333,376.58 1206.62667,374.998333 1203.68,371.835 C1200.73333,368.671667 1199.26,363.276667 1199.26,355.65 C1199.26,350.536667 1199.36833,345.878333 1199.585,341.675 C1199.80167,337.471667 1199.91,334.156667 1199.91,331.73 C1199.91,329.303333 1199.78,327.786667 1199.52,327.18 C1199.26,326.573333 1198.39333,326.27 1196.92,326.27 L1196.92,326.27 L1189.51,326.92 C1187.08333,326.92 1185.025,327.093333 1183.335,327.44 C1181.645,327.786667 1180.8,328.566667 1180.8,329.78 C1180.8,330.993333 1181.58,331.6 1183.14,331.6 L1183.14,331.6 L1185.48,331.6 C1186.26,331.6 1187.105,332.12 1188.015,333.16 C1188.925,334.2 1189.38,335.586667 1189.38,337.32 L1189.38,337.32 L1189.25,360.72 C1189.25,375.8 1196.22667,383.34 1210.18,383.34 Z M1319.51,381.65 C1321.15667,381.65 1321.98,381.173333 1321.98,380.22 C1321.98,379.873333 1321.80667,379.461667 1321.46,378.985 C1321.11333,378.508333 1320.50667,378.226667 1319.64,378.14 C1315.91333,377.62 1313.48667,376.428333 1312.36,374.565 C1311.23333,372.701667 1310.67,369.776667 1310.67,365.79 L1310.67,365.79 L1310.67,354.74 C1310.67,347.806667 1310.49667,342.91 1310.15,340.05 C1309.97667,339.096667 1309.89,338.446667 1309.89,338.1 C1309.89,337.753333 1310.54,337.038333 1311.84,335.955 C1313.14,334.871667 1314.87333,333.81 1317.04,332.77 C1319.20667,331.73 1321.28667,331.21 1323.28,331.21 C1327.52667,331.21 1330.77667,332.553333 1333.03,335.24 C1334.07,336.28 1334.76333,337.146667 1335.11,337.84 C1335.19667,338.013333 1335.45667,338.403333 1335.89,339.01 C1336.32333,339.616667 1336.56167,340.136667 1336.605,340.57 C1336.64833,341.003333 1336.8,341.631667 1337.06,342.455 C1337.32,343.278333 1337.45,344.166667 1337.45,345.12 L1337.45,345.12 L1337.84,353.7 L1337.97,367.48 L1337.97,369.56 C1337.97,372.593333 1337.79667,374.586667 1337.45,375.54 C1337.10333,376.32 1336.02,377.056667 1334.2,377.75 C1332.38,378.443333 1331.47,379.245 1331.47,380.155 C1331.47,381.065 1332.51,381.52 1334.59,381.52 L1334.59,381.52 L1343.95,381 L1352.53,381.52 C1355.39,381.52 1356.82,380.87 1356.82,379.57 C1356.82,378.53 1356.17,377.88 1354.87,377.62 C1354.35,377.533333 1353.74333,377.425 1353.05,377.295 C1352.35667,377.165 1351.96667,377.1 1351.88,377.1 C1350.32,376.58 1349.32333,375.453333 1348.89,373.72 C1348.45667,371.986667 1348.24,369.17 1348.24,365.27 L1348.24,365.27 L1348.24,361.11 C1348.24,355.216667 1347.95833,349.605 1347.395,344.275 C1346.83167,338.945 1344.83833,334.416667 1341.415,330.69 C1337.99167,326.963333 1333.11667,325.1 1326.79,325.1 C1323.67,325.1 1320.70167,325.988333 1317.885,327.765 C1315.06833,329.541667 1312.90167,331.318333 1311.385,333.095 C1309.86833,334.871667 1309.045,335.76 1308.915,335.76 C1308.785,335.76 1308.41667,335.218333 1307.81,334.135 C1307.20333,333.051667 1306.445,331.881667 1305.535,330.625 C1304.625,329.368333 1303,328.198333 1300.66,327.115 C1298.32,326.031667 1295.135,325.49 1291.105,325.49 C1287.075,325.49 1283.58667,326.573333 1280.64,328.74 C1279.42667,329.693333 1278.40833,330.625 1277.585,331.535 C1276.76167,332.445 1276.11167,333.225 1275.635,333.875 C1275.15833,334.525 1274.87667,334.85 1274.79,334.85 C1274.27,334.85 1274.01,334.33 1274.01,333.29 L1274.01,333.29 L1274.66,327.83 C1274.66,325.316667 1274.14,324.06 1273.1,324.06 C1272.06,324.06 1271.15,324.233333 1270.37,324.58 C1270.11,324.666667 1269.67667,324.883333 1269.07,325.23 C1268.46333,325.576667 1267.68333,325.945 1266.73,326.335 C1265.77667,326.725 1264.26,327.136667 1262.18,327.57 C1260.1,328.003333 1258.54,328.415 1257.5,328.805 C1256.46,329.195 1255.94,329.78 1255.94,330.56 C1255.94,331.946667 1257.37,332.553333 1260.23,332.38 C1261.35667,332.38 1262.375,332.813333 1263.285,333.68 C1264.195,334.546667 1264.65,336.02 1264.65,338.1 L1264.65,338.1 L1264.78,353.96 C1264.78,364.706667 1264.49833,370.99 1263.935,372.81 C1263.37167,374.63 1262.74333,375.865 1262.05,376.515 C1261.35667,377.165 1260.70667,377.533333 1260.1,377.62 C1258.54,377.88 1257.76,378.486667 1257.76,379.44 C1257.76,380.74 1258.8,381.39 1260.88,381.39 L1260.88,381.39 L1271.15,381 L1282.07,381.39 C1283.37,381.39 1284.15,381.26 1284.41,381 C1284.67,380.74 1284.8,380.22 1284.8,379.44 C1284.8,378.833333 1284.23667,378.4 1283.11,378.14 C1281.98333,377.88 1280.72667,377.641667 1279.34,377.425 C1277.95333,377.208333 1276.69667,376.276667 1275.57,374.63 C1274.44333,372.983333 1273.88,370.6 1273.88,367.48 L1273.88,367.48 L1273.88,341.22 C1273.88,338.706667 1275.31,336.496667 1278.17,334.59 C1281.03,332.683333 1284.41,331.73 1288.31,331.73 C1292.21,331.73 1295.33,333.116667 1297.67,335.89 C1300.01,338.663333 1301.18,342.346667 1301.18,346.94 L1301.18,346.94 L1301.31,348.24 L1301.44,355.13 L1301.44,363.06 L1301.31,368.26 L1301.31,370.73 C1301.31,372.03 1301.09333,373.33 1300.66,374.63 C1300.22667,375.93 1299.85833,376.666667 1299.555,376.84 C1299.25167,377.013333 1298.645,377.273333 1297.735,377.62 C1296.825,377.966667 1296.19667,378.291667 1295.85,378.595 C1295.50333,378.898333 1295.33,379.353333 1295.33,379.96 C1295.33,381.086667 1296.28333,381.65 1298.19,381.65 L1298.19,381.65 L1310.02,381 L1319.51,381.65 Z M217.37,523.52 L228.55,523 L239.34,523.13 C240.293333,523.13 240.9,522.978333 241.16,522.675 C241.42,522.371667 241.55,521.916667 241.55,521.31 C241.55,519.923333 239.946667,519.1 236.74,518.84 C235.526667,518.666667 234.421667,518.06 233.425,517.02 C232.428333,515.98 231.93,514.593333 231.93,512.86 C231.93,511.126667 232.493333,508.96 233.62,506.36 C234.226667,504.886667 234.746667,503.673333 235.18,502.72 C235.613333,501.766667 236.436667,500.055 237.65,497.585 C238.863333,495.115 239.795,493.186667 240.445,491.8 C241.095,490.413333 241.918333,489.503333 242.915,489.07 C243.911667,488.636667 246.36,488.42 250.26,488.42 L250.26,488.42 L257.15,488.42 L272.88,488.16 C275.653333,488.16 277.43,488.896667 278.21,490.37 C279.683333,493.143333 281.503333,497.476667 283.67,503.37 C285.836667,509.263333 286.92,512.968333 286.92,514.485 C286.92,516.001667 286.573333,517.085 285.88,517.735 C285.186667,518.385 284.45,518.775 283.67,518.905 C282.89,519.035 282.153333,519.295 281.46,519.685 C280.766667,520.075 280.42,520.616667 280.42,521.31 C280.42,522.003333 280.788333,522.458333 281.525,522.675 C282.261667,522.891667 283.973333,523 286.66,523 L286.66,523 L298.75,522.48 L310.45,523.26 C312.79,523.26 313.96,522.61 313.96,521.31 C313.96,520.27 313.505,519.598333 312.595,519.295 C311.685,518.991667 310.558333,518.775 309.215,518.645 C307.871667,518.515 306.29,517.691667 304.47,516.175 C302.65,514.658333 301.22,512.838333 300.18,510.715 C299.14,508.591667 295.218333,499.621667 288.415,483.805 C281.611667,467.988333 277.256667,457.74 275.35,453.06 C273.443333,448.38 272.056667,444.87 271.19,442.53 C270.323333,440.19 269.695,438.5 269.305,437.46 C268.915,436.42 268.373333,434.903333 267.68,432.91 C266.986667,430.916667 266.51,429.746667 266.25,429.4 C265.99,429.053333 265.405,428.88 264.495,428.88 C263.585,428.88 262.891667,429.053333 262.415,429.4 C261.938333,429.746667 261.396667,430.57 260.79,431.87 C254.29,445.736667 246.858333,461.748333 238.495,479.905 C230.131667,498.061667 224.91,508.938333 222.83,512.535 C220.75,516.131667 218.323333,518.45 215.55,519.49 C214.25,519.923333 213.6,520.746667 213.6,521.96 C213.6,523 214.856667,523.52 217.37,523.52 L217.37,523.52 Z M256.89,481.53 L252.492854,481.529263 C249.843705,481.51845 248.146087,481.388696 247.4,481.14 C246.62,480.88 246.23,480.23 246.23,479.19 C246.23,478.15 248.31,472.841667 252.47,463.265 C256.63,453.688333 259.1,448.9 259.88,448.9 C261.006667,448.9 263.693333,453.688333 267.94,463.265 C272.186667,472.841667 274.31,478.258333 274.31,479.515 C274.31,480.771667 272.62,481.4 269.24,481.4 L269.24,481.4 L256.89,481.53 Z M349.71,525.34 C353.176667,525.34 356.361667,524.646667 359.265,523.26 C362.168333,521.873333 364.4,520.486667 365.96,519.1 C367.52,517.713333 368.365,517.02 368.495,517.02 C368.625,517.02 368.885,518.125 369.275,520.335 C369.665,522.545 370.163333,523.65 370.77,523.65 C371.03,523.65 372.915,523.411667 376.425,522.935 C379.935,522.458333 382.556667,522.22 384.29,522.22 C386.023333,522.22 387.193333,522.09 387.8,521.83 C388.406667,521.57 388.71,520.92 388.71,519.88 C388.71,518.84 387.67,518.32 385.59,518.32 L385.59,518.32 L382.21,518.45 C380.823333,518.45 379.87,517.496667 379.35,515.59 C378.83,513.683333 378.57,509.523333 378.57,503.11 C378.57,496.696667 378.656667,490.89 378.83,485.69 C378.916667,483.09 378.981667,480.75 379.025,478.67 C379.068333,476.59 379.111667,474.921667 379.155,473.665 C379.198333,472.408333 379.22,471.368333 379.22,470.545 C379.22,469.721667 379.025,469.093333 378.635,468.66 C378.245,468.226667 377.4,468.01 376.1,468.01 L376.1,468.01 L371.42,468.66 C363.793333,468.66 359.98,469.656667 359.98,471.65 C359.98,472.603333 361.106667,473.188333 363.36,473.405 C365.613333,473.621667 367.086667,474.488333 367.78,476.005 C368.473333,477.521667 368.82,480.446667 368.82,484.78 L368.82,484.78 L369.08,502.72 C369.08,508.613333 367.823333,512.73 365.31,515.07 C362.796667,517.41 358.766667,518.58 353.22,518.58 C349.493333,518.58 346.156667,516.998333 343.21,513.835 C340.263333,510.671667 338.79,505.276667 338.79,497.65 C338.79,492.536667 338.898333,487.878333 339.115,483.675 C339.331667,479.471667 339.44,476.156667 339.44,473.73 C339.44,471.303333 339.31,469.786667 339.05,469.18 C338.79,468.573333 337.923333,468.27 336.45,468.27 L336.45,468.27 L329.04,468.92 C326.613333,468.92 324.555,469.093333 322.865,469.44 C321.175,469.786667 320.33,470.566667 320.33,471.78 C320.33,472.993333 321.11,473.6 322.67,473.6 L322.67,473.6 L325.01,473.6 C325.79,473.6 326.635,474.12 327.545,475.16 C328.455,476.2 328.91,477.586667 328.91,479.32 L328.91,479.32 L328.78,502.72 C328.78,517.8 335.756667,525.34 349.71,525.34 Z M444.09,524.82 C444.523333,524.82 445.65,524.625 447.47,524.235 C449.29,523.845 450.893333,523.606667 452.28,523.52 C458.953333,523 462.29,522.22 462.29,521.18 C462.29,520.486667 462.03,519.988333 461.51,519.685 C460.99,519.381667 460.123333,519.121667 458.91,518.905 C458.020222,518.746111 457.386785,518.622178 457.009689,518.5332 L456.829422,518.488133 C456.777807,518.474267 456.734667,518.461556 456.7,518.45 C454.793333,517.843333 453.558333,516.543333 452.995,514.55 C452.431667,512.556667 452.15,508.613333 452.15,502.72 L452.15,502.72 L452.41,455.27 C452.41,450.936667 452.691667,445.216667 453.255,438.11 C453.818333,431.003333 454.1,427.32 454.1,427.06 C454.1,425.326667 453.58,424.46 452.54,424.46 C451.846667,424.46 450.676667,424.893333 449.03,425.76 C448.25,426.106667 447.101667,426.626667 445.585,427.32 C444.068333,428.013333 441.988333,428.771667 439.345,429.595 C436.701667,430.418333 434.946667,430.981667 434.08,431.285 C433.213333,431.588333 432.78,432.043333 432.78,432.65 L432.78,432.65 L432.78,432.78 C432.78,433.3 432.91,433.603333 433.17,433.69 C433.43,433.776667 434.21,433.82 435.51,433.82 L436.94,433.82 C438.586667,433.82 439.908333,434.123333 440.905,434.73 C441.901667,435.336667 442.638333,436.593333 443.115,438.5 C443.591667,440.406667 443.83,443.7 443.83,448.38 L443.83,448.38 L443.57,465.15 C443.57,468.27 443.396667,469.83 443.05,469.83 C442.779167,469.83 441.490063,469.446496 439.18269,468.679487 L438.60937,468.488042 C438.115311,468.322368 437.580521,468.141354 437.005,467.945 C433.321667,466.688333 430.353333,466.06 428.1,466.06 C418.22,466.06 410.485,469.223333 404.895,475.55 C399.305,481.876667 396.51,489.005 396.51,496.935 C396.51,504.865 398.763333,511.495 403.27,516.825 C407.776667,522.155 414.06,524.82 422.12,524.82 C424.98,524.82 427.645,524.386667 430.115,523.52 C432.585,522.653333 434.47,521.678333 435.77,520.595 C437.07,519.511667 438.218333,518.536667 439.215,517.67 C440.211667,516.803333 440.84,516.37 441.1,516.37 C441.88,516.37 442.27,517.106667 442.27,518.58 L442.27,518.58 L442.66,523.39 C442.66,524.343333 443.136667,524.82 444.09,524.82 Z M427.45,518.06 C421.123333,518.06 415.945,515.286667 411.915,509.74 C407.885,504.193333 405.87,498.213333 405.87,491.8 C405.87,485.386667 407.473333,480.121667 410.68,476.005 C413.886667,471.888333 418.306667,469.83 423.94,469.83 C427.84,469.83 432.996667,471.736667 439.41,475.55 C441.836667,476.936667 443.05,480.273333 443.05,485.56 L443.05,485.56 L442.92,507.79 C442.92,510.65 441.316667,513.076667 438.11,515.07 C434.903333,517.063333 431.35,518.06 427.45,518.06 Z M483.35,453.71 C484.13,453.71 485.343333,452.865 486.99,451.175 C488.636667,449.485 489.46,447.946667 489.46,446.56 C489.46,445.173333 488.81,443.591667 487.51,441.815 C486.21,440.038333 484.888333,439.15 483.545,439.15 C482.201667,439.15 480.771667,440.081667 479.255,441.945 C477.738333,443.808333 476.98,445.325 476.98,446.495 C476.98,447.665 477.608333,449.16 478.865,450.98 C480.121667,452.8 481.616667,453.71 483.35,453.71 Z M496.74,523.91 C498.213333,523.91 498.95,523.173333 498.95,521.7 C498.95,520.66 498.343333,520.053333 497.13,519.88 C496.783333,519.88 496.003333,519.836667 494.79,519.75 C493.576667,519.663333 492.515,519.446667 491.605,519.1 C490.695,518.753333 489.828333,517.843333 489.005,516.37 C488.181667,514.896667 487.77,512.86 487.77,510.26 L487.77,510.26 L487.77,474.64 L488.55,468.4 C488.55,466.753333 487.9,465.93 486.6,465.93 C485.733333,465.93 484.996667,466.06 484.39,466.32 C484.13,466.493333 483.588333,466.753333 482.765,467.1 C481.941667,467.446667 480.75,467.966667 479.19,468.66 C477.63,469.353333 475.636667,470.046667 473.21,470.74 C472.516667,471 471.845,471.281667 471.195,471.585 C470.545,471.888333 470.111667,472.17 469.895,472.43 C469.678333,472.69 469.57,473.058333 469.57,473.535 C469.57,474.011667 469.851667,474.358333 470.415,474.575 C470.978333,474.791667 471.888333,475.008333 473.145,475.225 C474.401667,475.441667 475.29,475.723333 475.81,476.07 C476.33,476.416667 476.893333,477.326667 477.5,478.8 C478.106667,480.273333 478.41,482.266667 478.41,484.78 L478.41,484.78 L478.409111,497.33376 C478.390745,508.681253 478.087708,515.026667 477.5,516.37 C476.893333,517.756667 475.593333,518.796667 473.6,519.49 C473.34,519.576667 473.166667,519.62 473.08,519.62 C471.78,520.053333 471.13,520.855 471.13,522.025 C471.13,523.195 472.863333,523.78 476.33,523.78 L476.33,523.78 L485.56,523.52 L494.79,523.78 L496.74,523.91 Z M535.87,525.34 C544.796667,525.34 552.358333,522.718333 558.555,517.475 C564.751667,512.231667 567.85,505.06 567.85,495.96 C567.85,486.86 564.838333,479.753333 558.815,474.64 C552.791667,469.526667 545.338333,466.97 536.455,466.97 C527.571667,466.97 520.421667,469.916667 515.005,475.81 C509.588333,481.703333 506.88,488.593333 506.88,496.48 C506.88,504.366667 509.501667,511.148333 514.745,516.825 C519.988333,522.501667 527.03,525.34 535.87,525.34 Z M539.705,521.44 C534.201667,521.44 529.066667,518.796667 524.3,513.51 C519.533333,508.223333 517.15,501.506667 517.15,493.36 C517.15,485.213333 518.905,479.363333 522.415,475.81 C525.925,472.256667 529.933333,470.48 534.44,470.48 C541.893333,470.48 547.7,473.448333 551.86,479.385 C556.02,485.321667 558.1,491.93 558.1,499.21 C558.1,506.49 556.41,512.015 553.03,515.785 C549.65,519.555 545.208333,521.44 539.705,521.44 Z M658.33,525.21 C661.276667,525.21 664.396667,524.82 667.69,524.04 C669.163333,523.693333 670.593333,523.303333 671.98,522.87 C673.366667,522.436667 674.71,521.938333 676.01,521.375 C677.31,520.811667 678.48,520.27 679.52,519.75 C680.56,519.23 681.578333,518.71 682.575,518.19 C683.571667,517.67 684.373333,517.236667 684.98,516.89 C685.586667,516.543333 686.496667,516.001667 687.71,515.265 C688.923333,514.528333 690.266667,513.965 691.74,513.575 C693.213333,513.185 694.275,512.881667 694.925,512.665 C695.575,512.448333 695.9,512.166667 695.9,511.82 C695.9,511.473333 695.856667,510.996667 695.77,510.39 C695.683333,509.783333 695.618333,509.068333 695.575,508.245 C695.531667,507.421667 695.466667,506.013333 695.38,504.02 C695.300267,502.186133 695.257211,499.380317 695.250832,495.602552 L695.25,494.595 C695.25,490.305 695.553333,486.296667 696.16,482.57 C696.42,481.096667 697.655,479.883333 699.865,478.93 C702.075,477.976667 703.18,477.196667 703.18,476.59 C703.18,475.81 702.486667,475.42 701.1,475.42 L701.1,475.42 L699.15,475.42 L688.75,475.55 L674.32,474.9 C672.76,474.9 671.98,475.376667 671.98,476.33 C671.98,476.85 672.131667,477.391667 672.435,477.955 C672.738333,478.518333 674.233333,478.951667 676.92,479.255 C679.606667,479.558333 681.578333,480.338333 682.835,481.595 C684.091667,482.851667 684.72,485.17 684.72,488.55 C684.72,497.39 684.59,502.85 684.33,504.93 C683.723333,508.83 680.711667,512.296667 675.295,515.33 C669.878333,518.363333 663.551667,519.88 656.315,519.88 C649.078333,519.88 642.448333,517.583333 636.425,512.99 C630.401667,508.396667 625.916667,502.59 622.97,495.57 C620.023333,488.55 618.55,481.053333 618.55,473.08 C618.55,461.033333 622.081667,451.608333 629.145,444.805 C636.208333,438.001667 645.156667,434.6 655.99,434.6 C663.53,434.6 670.853333,436.875 677.96,441.425 C685.066667,445.975 690.136667,451.543333 693.17,458.13 C693.603333,459.17 694.34,459.69 695.38,459.69 C696.42,459.69 696.94,458.953333 696.94,457.48 C696.94,457.133333 696.81,456.05 696.55,454.23 C696.29,452.41 696.008333,450.113333 695.705,447.34 C695.401667,444.566667 695.228333,442.118333 695.185,439.995 C695.141667,437.871667 694.47,436.81 693.17,436.81 C692.823333,436.81 692.195,437.135 691.285,437.785 C690.375,438.435 689.811667,438.76 689.595,438.76 C689.378333,438.76 688.815,438.435 687.905,437.785 C686.995,437.135 685.673333,436.333333 683.94,435.38 C676.4,431.48 667.473333,429.53 657.16,429.53 C646.413333,429.53 637.14,431.848333 629.34,436.485 C621.54,441.121667 615.755,447.21 611.985,454.75 C608.215,462.29 606.33,470.783333 606.33,480.23 C606.33,492.19 610.056667,502.46 617.51,511.04 C621.323333,515.373333 626.718333,518.818333 633.695,521.375 C640.671667,523.931667 648.883333,525.21 658.33,525.21 Z M740.1,525.34 C743.566667,525.34 746.751667,524.646667 749.655,523.26 C752.558333,521.873333 754.79,520.486667 756.35,519.1 C757.91,517.713333 758.755,517.02 758.885,517.02 C759.015,517.02 759.275,518.125 759.665,520.335 C760.055,522.545 760.553333,523.65 761.16,523.65 C761.42,523.65 763.305,523.411667 766.815,522.935 C770.325,522.458333 772.946667,522.22 774.68,522.22 C776.413333,522.22 777.583333,522.09 778.19,521.83 C778.796667,521.57 779.1,520.92 779.1,519.88 C779.1,518.84 778.06,518.32 775.98,518.32 L775.98,518.32 L772.6,518.45 C771.213333,518.45 770.26,517.496667 769.74,515.59 C769.22,513.683333 768.96,509.523333 768.96,503.11 C768.96,496.696667 769.046667,490.89 769.22,485.69 C769.306667,483.09 769.371667,480.75 769.415,478.67 C769.458333,476.59 769.501667,474.921667 769.545,473.665 C769.588333,472.408333 769.61,471.368333 769.61,470.545 C769.61,469.721667 769.415,469.093333 769.025,468.66 C768.635,468.226667 767.79,468.01 766.49,468.01 L766.49,468.01 L761.81,468.66 C754.183333,468.66 750.37,469.656667 750.37,471.65 C750.37,472.603333 751.496667,473.188333 753.75,473.405 C756.003333,473.621667 757.476667,474.488333 758.17,476.005 C758.863333,477.521667 759.21,480.446667 759.21,484.78 L759.21,484.78 L759.47,502.72 C759.47,508.613333 758.213333,512.73 755.7,515.07 C753.186667,517.41 749.156667,518.58 743.61,518.58 C739.883333,518.58 736.546667,516.998333 733.6,513.835 C730.653333,510.671667 729.18,505.276667 729.18,497.65 C729.18,492.536667 729.288333,487.878333 729.505,483.675 C729.721667,479.471667 729.83,476.156667 729.83,473.73 C729.83,471.303333 729.7,469.786667 729.44,469.18 C729.18,468.573333 728.313333,468.27 726.84,468.27 L726.84,468.27 L719.43,468.92 C717.003333,468.92 714.945,469.093333 713.255,469.44 C711.565,469.786667 710.72,470.566667 710.72,471.78 C710.72,472.993333 711.5,473.6 713.06,473.6 L713.06,473.6 L715.4,473.6 C716.18,473.6 717.025,474.12 717.935,475.16 C718.845,476.2 719.3,477.586667 719.3,479.32 L719.3,479.32 L719.17,502.72 C719.17,517.8 726.146667,525.34 740.1,525.34 Z M800.29,453.71 C801.07,453.71 802.283333,452.865 803.93,451.175 C805.576667,449.485 806.4,447.946667 806.4,446.56 C806.4,445.173333 805.75,443.591667 804.45,441.815 C803.15,440.038333 801.828333,439.15 800.485,439.15 C799.141667,439.15 797.711667,440.081667 796.195,441.945 C794.678333,443.808333 793.92,445.325 793.92,446.495 C793.92,447.665 794.548333,449.16 795.805,450.98 C797.061667,452.8 798.556667,453.71 800.29,453.71 Z M813.68,523.91 C815.153333,523.91 815.89,523.173333 815.89,521.7 C815.89,520.66 815.283333,520.053333 814.07,519.88 C813.723333,519.88 812.943333,519.836667 811.73,519.75 C810.516667,519.663333 809.455,519.446667 808.545,519.1 C807.635,518.753333 806.768333,517.843333 805.945,516.37 C805.121667,514.896667 804.71,512.86 804.71,510.26 L804.71,510.26 L804.71,474.64 L805.49,468.4 C805.49,466.753333 804.84,465.93 803.54,465.93 C802.673333,465.93 801.936667,466.06 801.33,466.32 C801.07,466.493333 800.528333,466.753333 799.705,467.1 C798.881667,467.446667 797.69,467.966667 796.13,468.66 C794.57,469.353333 792.576667,470.046667 790.15,470.74 C789.456667,471 788.785,471.281667 788.135,471.585 C787.485,471.888333 787.051667,472.17 786.835,472.43 C786.618333,472.69 786.51,473.058333 786.51,473.535 C786.51,474.011667 786.791667,474.358333 787.355,474.575 C787.918333,474.791667 788.828333,475.008333 790.085,475.225 C791.341667,475.441667 792.23,475.723333 792.75,476.07 C793.27,476.416667 793.833333,477.326667 794.44,478.8 C795.046667,480.273333 795.35,482.266667 795.35,484.78 L795.35,484.78 L795.35,496.22 C795.35,508.266667 795.046667,514.983333 794.44,516.37 C793.833333,517.756667 792.533333,518.796667 790.54,519.49 C790.28,519.576667 790.106667,519.62 790.02,519.62 C788.72,520.053333 788.07,520.855 788.07,522.025 C788.07,523.195 789.803333,523.78 793.27,523.78 L793.27,523.78 L802.5,523.52 L811.73,523.78 L813.68,523.91 Z M871.4,524.82 C871.833333,524.82 872.96,524.625 874.78,524.235 C876.6,523.845 878.203333,523.606667 879.59,523.52 C886.263333,523 889.6,522.22 889.6,521.18 C889.6,520.486667 889.34,519.988333 888.82,519.685 C888.3,519.381667 887.433333,519.121667 886.22,518.905 C885.330222,518.746111 884.696785,518.622178 884.319689,518.5332 L884.139422,518.488133 C884.087807,518.474267 884.044667,518.461556 884.01,518.45 C882.103333,517.843333 880.868333,516.543333 880.305,514.55 C879.741667,512.556667 879.46,508.613333 879.46,502.72 L879.46,502.72 L879.72,455.27 C879.72,450.936667 880.001667,445.216667 880.565,438.11 C881.128333,431.003333 881.41,427.32 881.41,427.06 C881.41,425.326667 880.89,424.46 879.85,424.46 C879.156667,424.46 877.986667,424.893333 876.34,425.76 C875.56,426.106667 874.411667,426.626667 872.895,427.32 C871.378333,428.013333 869.298333,428.771667 866.655,429.595 C864.011667,430.418333 862.256667,430.981667 861.39,431.285 C860.523333,431.588333 860.09,432.043333 860.09,432.65 L860.09,432.65 L860.09,432.78 C860.09,433.3 860.22,433.603333 860.48,433.69 C860.74,433.776667 861.52,433.82 862.82,433.82 L864.25,433.82 C865.896667,433.82 867.218333,434.123333 868.215,434.73 C869.211667,435.336667 869.948333,436.593333 870.425,438.5 C870.901667,440.406667 871.14,443.7 871.14,448.38 L871.14,448.38 L870.88,465.15 C870.88,468.27 870.706667,469.83 870.36,469.83 C870.089167,469.83 868.800063,469.446496 866.49269,468.679487 L865.91937,468.488042 C865.425311,468.322368 864.890521,468.141354 864.315,467.945 C860.631667,466.688333 857.663333,466.06 855.41,466.06 C845.53,466.06 837.795,469.223333 832.205,475.55 C826.615,481.876667 823.82,489.005 823.82,496.935 C823.82,504.865 826.073333,511.495 830.58,516.825 C835.086667,522.155 841.37,524.82 849.43,524.82 C852.29,524.82 854.955,524.386667 857.425,523.52 C859.895,522.653333 861.78,521.678333 863.08,520.595 C864.38,519.511667 865.528333,518.536667 866.525,517.67 C867.521667,516.803333 868.15,516.37 868.41,516.37 C869.19,516.37 869.58,517.106667 869.58,518.58 L869.58,518.58 L869.97,523.39 C869.97,524.343333 870.446667,524.82 871.4,524.82 Z M854.76,518.06 C848.433333,518.06 843.255,515.286667 839.225,509.74 C835.195,504.193333 833.18,498.213333 833.18,491.8 C833.18,485.386667 834.783333,480.121667 837.99,476.005 C841.196667,471.888333 845.616667,469.83 851.25,469.83 C855.15,469.83 860.306667,471.736667 866.72,475.55 C869.146667,476.936667 870.36,480.273333 870.36,485.56 L870.36,485.56 L870.23,507.79 C870.23,510.65 868.626667,513.076667 865.42,515.07 C862.213333,517.063333 858.66,518.06 854.76,518.06 Z M924.7,525.47 C930.333333,525.47 935.23,524.126667 939.39,521.44 C941.123333,520.313333 942.943333,518.861667 944.85,517.085 C946.756667,515.308333 947.71,513.9 947.71,512.86 C947.71,512.08 947.276667,511.69 946.41,511.69 C946.236667,511.69 944.265,512.665 940.495,514.615 C936.725,516.565 933.02,517.54 929.38,517.54 C923.486667,517.54 918.351667,515.2 913.975,510.52 C909.598333,505.84 907.41,499.426667 907.41,491.28 C907.41,490.586667 907.475,490.175 907.605,490.045 C907.735,489.915 908.146667,489.85 908.84,489.85 L908.84,489.85 L942.25,489.85 C945.803333,489.85 947.58,489.07 947.58,487.51 C947.58,485.69 946.626667,483.003333 944.72,479.45 C943.593333,477.37 942.206667,475.398333 940.56,473.535 C938.913333,471.671667 936.595,470.09 933.605,468.79 C930.615,467.49 927.3,466.84 923.66,466.84 C915.86,466.84 909.511667,469.83 904.615,475.81 C899.718333,481.79 897.27,489.221667 897.27,498.105 C897.27,506.988333 899.935,513.77 905.265,518.45 C910.595,523.13 917.073333,525.47 924.7,525.47 Z M909.88,486.73 C908.753333,486.73 908.19,486.123333 908.19,484.91 C908.19,481.876667 909.36,478.648333 911.7,475.225 C914.04,471.801667 917.376667,470.09 921.71,470.09 C926.043333,470.09 929.423333,471.823333 931.85,475.29 C934.276667,478.756667 935.49,481.79 935.49,484.39 C935.49,484.996667 935.338333,485.408333 935.035,485.625 C934.731667,485.841667 933.973333,485.95 932.76,485.95 L932.76,485.95 L909.88,486.73 Z"></path>
        </g>
    </g>
</svg>